<svg width="1599" height="1577" viewBox="0 0 1599 1577" fill="none" xmlns="http://www.w3.org/2000/svg">
<path d="M78.5699 1085.48C125.898 1085.48 162.325 1097.84 187.85 1122.57C213.641 1147.29 226.537 1181.73 226.537 1225.86C226.537 1270 213.641 1304.3 187.85 1328.76C162.325 1353.22 125.898 1365.46 78.5699 1365.46H0V1085.48H78.5699ZM78.5699 1350.3C120.846 1350.3 153.019 1339.4 175.087 1317.6C197.156 1295.53 208.19 1264.95 208.19 1225.86C208.19 1186.51 197.156 1155.8 175.087 1133.73C153.019 1111.67 120.846 1100.63 78.5699 1100.63H17.9474V1350.3H78.5699Z" fill="#40BCFA"/>
<path d="M431.976 1365.46L360.186 1246.2H298.766V1365.46H280.818V1085.48H357.793C388.902 1085.48 412.167 1092.79 427.588 1107.41C443.276 1122.04 451.12 1141.45 451.12 1165.64C451.12 1187.18 445.004 1204.99 432.773 1219.08C420.808 1232.91 403.26 1241.42 380.127 1244.61L453.513 1365.46H431.976ZM298.766 1231.05H358.59C383.318 1231.05 401.797 1225.07 414.028 1213.1C426.259 1201.14 432.374 1185.32 432.374 1165.64C432.374 1122.83 407.514 1101.43 357.793 1101.43H298.766V1231.05Z" fill="#40BCFA"/>
<path d="M663.117 1293.67H530.306L503.585 1365.46H484.042L586.941 1091.86H606.882L709.382 1365.46H689.839L663.117 1293.67ZM657.534 1278.51L596.911 1115.39L535.89 1278.51H657.534Z" fill="#40BCFA"/>
<path d="M923.935 1164.44C923.935 1189.17 916.224 1208.45 900.803 1222.27C885.381 1235.84 862.515 1242.62 832.204 1242.62H772.379V1365.46H754.431V1085.48H832.204C863.047 1085.48 886.046 1092.65 901.202 1107.01C916.357 1121.1 923.935 1140.25 923.935 1164.44ZM832.204 1226.66C881.393 1226.66 905.988 1205.92 905.988 1164.44C905.988 1143.97 900.138 1128.42 888.439 1117.78C876.74 1106.88 857.995 1101.43 832.204 1101.43H772.379V1226.66H832.204Z" fill="#40BCFA"/>
<path d="M990.101 1100.63V1217.49H1101.77V1232.64H990.101V1350.3H1113.74V1365.46H972.153V1085.48H1113.74V1100.63H990.101Z" fill="#40BCFA"/>
<path d="M1319.22 1365.46L1247.43 1246.2H1186.01V1365.46H1168.06V1085.48H1245.04C1276.15 1085.48 1299.41 1092.79 1314.83 1107.41C1330.52 1122.04 1338.36 1141.45 1338.36 1165.64C1338.36 1187.18 1332.25 1204.99 1320.02 1219.08C1308.05 1232.91 1290.51 1241.42 1267.37 1244.61L1340.76 1365.46H1319.22ZM1186.01 1231.05H1245.84C1270.56 1231.05 1289.04 1225.07 1301.27 1213.1C1313.5 1201.14 1319.62 1185.32 1319.62 1165.64C1319.62 1122.83 1294.76 1101.43 1245.04 1101.43H1186.01V1231.05Z" fill="#40BCFA"/>
<path d="M1425.13 1087.47V1263.35C1425.13 1288.08 1431.11 1306.43 1443.08 1318.39C1455.31 1330.36 1472.19 1336.34 1493.73 1336.34C1515 1336.34 1531.62 1330.36 1543.58 1318.39C1555.81 1306.43 1561.93 1288.08 1561.93 1263.35V1087.47H1598.22V1262.96C1598.22 1286.09 1593.57 1305.63 1584.26 1321.58C1574.96 1337.27 1562.33 1348.97 1546.37 1356.68C1530.69 1364.39 1513.01 1368.25 1493.33 1368.25C1473.65 1368.25 1455.84 1364.39 1439.89 1356.68C1424.2 1348.97 1411.7 1337.27 1402.4 1321.58C1393.36 1305.63 1388.84 1286.09 1388.84 1262.96V1087.47H1425.13Z" fill="#40BCFA"/>
<path fill-rule="evenodd" clip-rule="evenodd" d="M791.204 2.06417C789.048 3.20084 783.239 7.21707 778.294 10.9903C744.687 36.6352 698.008 63.0435 652.3 82.2686C629.199 91.9857 598.991 102.649 574.701 109.661L562.997 113.039L556.101 120.58C537.178 141.273 522.641 159.796 508.733 180.935C502.196 190.872 494.736 204.377 492.077 211.09C491.087 213.589 491.09 213.777 492.117 214.536C493.346 215.444 495.072 214.975 501.531 211.979C546.612 191.058 586.795 177.085 629.238 167.569C640.314 165.085 642.084 164.895 641.785 166.219C641.675 166.706 637.17 170.483 631.774 174.613C566.561 224.52 510.788 291.634 464.1 376.384C443.802 413.232 425.33 454.23 408.179 500.499L404.306 510.948L406.623 518.035C430.272 590.366 468.848 667.693 512.034 729.338C540.423 769.861 563.402 797.563 595.665 830.154C624.578 859.361 647.68 879.181 678.977 901.632C708.276 922.649 744.841 943.673 781.702 960.696C790.188 964.616 790.497 964.705 795.652 964.713C802.741 964.725 805.619 963.659 825.822 953.549C879.426 926.724 922.862 896.932 972.043 853.258C980.904 845.391 1008.66 817.58 1018.25 806.957C1042.41 780.206 1067.18 747.826 1091.79 710.809C1130.61 652.429 1163.31 585.157 1185.86 517.293C1202.5 467.219 1213.45 421.276 1222.22 364.798C1225.15 345.902 1228.96 313.029 1230.55 292.777C1233.47 255.74 1236.09 185.454 1234.66 182.56C1234.32 181.868 1233.79 174.77 1233.48 166.785C1233 154.285 1232.75 151.936 1231.7 149.876C1229.17 144.91 1224.56 143.761 1198.34 141.547C1168.12 138.994 1151.05 137.154 1131.24 134.309C1020.06 118.348 915.684 80.81 839.054 29.229C834.45 26.1303 825.48 19.7017 819.12 14.9427C807.125 5.96767 797.96 0.00187911 796.164 3.16536e-07C795.592 -0.000625948 793.36 0.928124 791.204 2.06417ZM519.135 123.654C463.127 134.789 428.487 139.684 388.006 142.183C382.209 142.54 374.955 143.264 371.886 143.79C359.098 145.984 358.896 146.639 357.904 189.235C357.211 219.013 357.7 248.529 359.16 265.153C359.496 268.98 360.212 277.888 360.751 284.949C364.241 330.709 372.406 386.16 381.87 428.364C387.301 452.586 398.051 492.753 398.846 491.798C399.073 491.525 401.306 484.68 403.808 476.586C417.968 430.789 432.672 393.151 450.294 357.596C465.89 326.131 479.023 304.656 502.378 272.424C515.591 254.19 534.709 227.058 535.777 225.026C536.94 222.81 536.634 222.323 534.08 222.323C530.522 222.323 525.812 223.956 503.578 232.898C459.847 250.487 435.582 261.767 412.745 275.124C407.598 278.134 406.296 278.586 406.296 277.359C406.296 276.515 414.372 262.765 421.703 251.131C445.816 212.86 476.461 175.199 515.168 136.264C526.19 125.178 528.909 122.133 527.748 122.179C526.932 122.21 523.057 122.874 519.135 123.654ZM638.175 265.599C663.237 266.382 719.814 265.978 745.434 264.835C775.787 263.481 827.802 264.736 852.384 267.417C915.523 274.303 963.818 296.349 1000.37 334.971C1035.58 372.179 1052.33 418.235 1052.33 477.838C1052.33 536.403 1037.49 580.677 1003.56 623.374C991.368 638.721 978.968 650.277 963.481 660.73C934.881 680.032 900.489 691.74 855.174 697.603C833.593 700.395 831.06 700.472 769.924 700.206C669.655 699.769 622.293 699.829 606.208 700.414L590.672 700.978L589.313 699.233C588.05 697.611 587.955 696.818 587.955 687.95C587.955 679.249 588.068 678.268 589.24 676.762L590.525 675.112H607.175C633.567 675.112 638.563 673.785 642.037 665.852C643.687 662.084 644.118 654.397 645.28 608.001C647.593 515.744 648.317 401.399 646.856 358.98C645.817 328.779 645.005 309.17 644.697 306.868C643.739 299.683 640.877 294.852 636.064 292.294C633.654 291.013 632.474 290.927 612.855 290.609L592.184 290.272L591 288.794C589.941 287.473 589.815 286.222 589.815 277.051C589.815 263.105 588.837 263.969 604.012 264.495C610.355 264.714 625.728 265.211 638.175 265.599ZM768.374 289.138C764.243 289.453 756.784 291.173 753.623 292.543C747.041 295.393 743.864 299.52 741.621 308.133L740.238 313.444L740.024 404.566C739.742 524.216 740.642 633.708 741.955 639.415C745.774 656.016 752.881 665.641 764.658 670.161C771.677 672.855 787.061 675.117 798.339 675.114C813.713 675.109 833.132 670.824 849.904 663.737C884.697 649.034 910.629 623.291 929.895 584.328C937.157 569.643 943.863 550.915 946.946 536.707C951.989 513.475 953.949 497.022 953.957 477.838C953.962 464.663 953.314 456.621 951.229 444.02C945.858 411.552 932.432 379.499 913.617 354.224C907.44 345.925 892.465 330.826 884.505 324.87C858.816 305.646 825.262 292.108 796.469 289.35C790.267 288.756 774.914 288.64 768.374 289.138Z" fill="#40BCFA"/>
<path d="M577.23 1487.66V1576.11H565.682V1487.66H577.23Z" fill="#40BCFA"/>
<path d="M704.523 1576.11H692.975L646.53 1505.68V1576.11H634.982V1487.54H646.53L692.975 1557.84V1487.54H704.523V1576.11Z" fill="#40BCFA"/>
<path d="M789.817 1487.66C799.461 1487.66 807.794 1489.48 814.816 1493.12C821.923 1496.67 827.337 1501.79 831.06 1508.47C834.867 1515.16 836.77 1523.03 836.77 1532.08C836.77 1541.13 834.867 1549 831.06 1555.68C827.337 1562.28 821.923 1567.36 814.816 1570.91C807.794 1574.38 799.461 1576.11 789.817 1576.11H762.279V1487.66H789.817ZM789.817 1566.59C801.238 1566.59 809.952 1563.59 815.958 1557.58C821.965 1551.49 824.968 1542.99 824.968 1532.08C824.968 1521.08 821.923 1512.49 815.831 1506.32C809.825 1500.14 801.153 1497.05 789.817 1497.05H773.827V1566.59H789.817Z" fill="#40BCFA"/>
<path d="M901.621 1487.66V1576.11H890.073V1487.66H901.621Z" fill="#40BCFA"/>
<path d="M1011.66 1556.44H973.078L965.971 1576.11H953.789L985.768 1488.17H999.093L1030.94 1576.11H1018.76L1011.66 1556.44ZM1008.36 1547.05L992.367 1502.38L976.377 1547.05H1008.36Z" fill="#40BCFA"/>
</svg>
