<svg width="2025" height="710" viewBox="0 0 2025 710" fill="none" xmlns="http://www.w3.org/2000/svg">
<path fill-rule="evenodd" clip-rule="evenodd" d="M325.509 1.51917C323.89 2.35572 319.529 5.31155 315.817 8.08855C290.589 26.9624 255.547 46.3982 221.234 60.5472C203.892 67.6988 181.215 75.5467 162.981 80.7071L154.195 83.1937L149.018 88.7435C134.813 103.973 123.9 117.605 113.459 133.163C108.552 140.476 102.952 150.415 100.956 155.356C100.213 157.195 100.215 157.334 100.986 157.892C101.909 158.561 103.204 158.215 108.053 156.01C141.895 140.613 172.06 130.329 203.922 123.326C212.236 121.498 213.565 121.358 213.341 122.332C213.258 122.691 209.876 125.47 205.826 128.51C156.87 165.24 115.002 214.634 79.954 277.007C64.7158 304.127 50.8489 334.299 37.9737 368.353L35.0666 376.042L36.8059 381.258C54.5593 434.492 83.5182 491.402 115.938 536.771C137.249 566.595 154.499 586.983 178.719 610.968C200.424 632.464 217.766 647.051 241.261 663.575C263.255 679.042 290.704 694.515 318.376 707.044C324.746 709.928 324.978 709.994 328.848 710C334.17 710.009 336.33 709.225 351.497 701.784C391.736 682.041 424.344 660.115 461.264 627.973C467.915 622.182 488.75 601.715 495.952 593.897C514.088 574.209 532.679 550.377 551.157 523.134C580.297 480.168 604.846 430.658 621.775 380.712C634.265 343.859 642.489 310.047 649.07 268.48C651.272 254.574 654.127 230.38 655.325 215.475C657.517 188.217 659.483 136.489 658.407 134.359C658.151 133.849 657.752 128.625 657.521 122.749C657.159 113.549 656.974 111.82 656.185 110.304C654.284 106.65 650.83 105.804 631.145 104.174C608.454 102.296 595.644 100.941 580.771 98.8476C497.312 87.1008 418.955 59.4738 361.429 21.5117C357.973 19.2311 351.24 14.4998 346.465 10.9974C337.461 4.39203 330.581 0.00138297 329.232 2.32961e-07C328.803 -0.000460679 327.127 0.683072 325.509 1.51917ZM121.268 91.0057C79.2232 99.2007 53.2188 102.803 22.8301 104.642C18.4783 104.905 13.0328 105.438 10.7289 105.825C1.129 107.44 0.977733 107.922 0.233047 139.271C-0.287302 161.187 0.0794559 182.91 1.17601 195.145C1.42827 197.961 1.96584 204.517 2.36983 209.714C4.98973 243.392 11.1194 284.202 18.2237 315.263C22.3013 333.09 30.3709 362.652 30.9681 361.949C31.138 361.748 32.8144 356.71 34.6929 350.753C45.3224 317.048 56.3605 289.348 69.5898 263.18C81.2972 240.023 91.1559 224.218 108.689 200.496C118.608 187.076 132.959 167.108 133.761 165.612C134.634 163.982 134.404 163.623 132.487 163.623C129.816 163.623 126.28 164.825 109.59 171.406C76.7611 184.351 58.5452 192.653 41.4016 202.483C37.5376 204.698 36.5602 205.031 36.5602 204.128C36.5602 203.506 42.6229 193.387 48.1261 184.825C66.228 156.659 89.2327 128.942 118.29 100.287C126.564 92.1276 128.606 89.8861 127.733 89.9198C127.121 89.9433 124.212 90.4319 121.268 91.0057ZM210.63 195.473C229.444 196.049 271.917 195.752 291.15 194.911C313.936 193.914 352.983 194.838 371.436 196.811C418.834 201.879 455.089 218.104 482.525 246.528C508.958 273.913 521.533 307.809 521.533 351.675C521.533 394.777 510.397 427.361 484.926 458.785C475.771 470.08 466.462 478.585 454.836 486.277C433.366 500.483 407.548 509.1 373.53 513.415C357.33 515.47 355.428 515.526 309.534 515.331C234.263 515.009 198.708 515.054 186.633 515.484L174.971 515.899L173.95 514.615C173.002 513.421 172.931 512.837 172.931 506.311C172.931 499.907 173.015 499.185 173.896 498.077L174.86 496.862H187.359C207.172 496.862 210.922 495.886 213.53 490.048C214.769 487.274 215.092 481.617 215.965 447.471C217.701 379.573 218.244 295.417 217.148 264.198C216.367 241.972 215.758 227.54 215.527 225.846C214.807 220.557 212.659 217.002 209.046 215.12C207.237 214.177 206.351 214.114 191.623 213.879L176.106 213.632L175.216 212.544C174.422 211.572 174.327 210.651 174.327 203.901C174.327 193.637 173.593 194.273 184.985 194.66C189.747 194.822 201.287 195.187 210.63 195.473ZM308.37 212.797C305.269 213.028 299.67 214.295 297.297 215.303C292.355 217.4 289.971 220.438 288.287 226.777L287.249 230.686L287.088 297.748C286.876 385.808 287.552 466.39 288.538 470.59C291.405 482.808 296.74 489.892 305.581 493.219C310.85 495.201 322.398 496.866 330.865 496.864C342.406 496.86 356.984 493.707 369.574 488.491C395.694 477.669 415.16 458.724 429.623 430.048C435.075 419.24 440.109 405.457 442.424 395.001C446.209 377.903 447.68 365.793 447.686 351.675C447.69 341.978 447.203 336.06 445.638 326.786C441.606 302.89 431.527 279.3 417.403 260.698C412.766 254.591 401.524 243.478 395.549 239.094C376.265 224.946 351.076 214.983 329.461 212.953C324.806 212.516 313.28 212.431 308.37 212.797Z" fill="#40BCFA"/>
<path d="M905.4 177.5C940.25 177.5 967.073 186.604 985.869 204.812C1004.86 223.021 1014.36 248.375 1014.36 280.876C1014.36 313.377 1004.86 338.633 985.869 356.646C967.073 374.658 940.25 383.664 905.4 383.664H847.545V177.5H905.4ZM905.4 372.504C936.53 372.504 960.221 364.477 976.471 348.423C992.721 332.172 1000.85 309.657 1000.85 280.876C1000.85 251.899 992.721 229.286 976.471 213.035C960.221 196.785 936.53 188.66 905.4 188.66H860.761V372.504H905.4Z" fill="#40BCFA"/>
<path d="M1165.63 383.664L1112.77 295.854H1067.54V383.664H1054.33V177.5H1111.01C1133.91 177.5 1151.05 182.884 1162.4 193.652C1173.95 204.421 1179.73 218.713 1179.73 236.53C1179.73 252.389 1175.23 265.507 1166.22 275.883C1157.41 286.064 1144.49 292.329 1127.45 294.679L1181.49 383.664H1165.63ZM1067.54 284.694H1111.59C1129.8 284.694 1143.41 280.288 1152.42 271.478C1161.42 262.668 1165.93 251.018 1165.93 236.53C1165.93 205.008 1147.62 189.247 1111.01 189.247H1067.54V284.694Z" fill="#40BCFA"/>
<path d="M1335.83 330.802H1238.04L1218.36 383.664H1203.97L1279.74 182.199H1294.42L1369.9 383.664H1355.51L1335.83 330.802ZM1331.72 319.642L1287.08 199.526L1242.15 319.642H1331.72Z" fill="#40BCFA"/>
<path d="M1527.89 235.649C1527.89 253.857 1522.21 268.052 1510.85 278.233C1499.5 288.218 1482.66 293.21 1460.34 293.21H1416.29V383.664H1403.07V177.5H1460.34C1483.05 177.5 1499.99 182.786 1511.15 193.359C1522.31 203.736 1527.89 217.832 1527.89 235.649ZM1460.34 281.463C1496.56 281.463 1514.67 266.192 1514.67 235.649C1514.67 220.573 1510.36 209.12 1501.75 201.288C1493.14 193.261 1479.33 189.247 1460.34 189.247H1416.29V281.463H1460.34Z" fill="#40BCFA"/>
<path d="M1576.61 188.66V274.709H1658.84V285.868H1576.61V372.504H1667.65V383.664H1563.39V177.5H1667.65V188.66H1576.61Z" fill="#40BCFA"/>
<path d="M1818.96 383.664L1766.1 295.854H1720.87V383.664H1707.65V177.5H1764.33C1787.24 177.5 1804.37 182.884 1815.73 193.652C1827.28 204.421 1833.05 218.713 1833.05 236.53C1833.05 252.389 1828.55 265.507 1819.55 275.883C1810.73 286.064 1797.81 292.329 1780.78 294.679L1834.82 383.664H1818.96ZM1720.87 284.694H1764.92C1783.13 284.694 1796.74 280.288 1805.74 271.478C1814.75 262.668 1819.25 251.018 1819.25 236.53C1819.25 205.008 1800.95 189.247 1764.33 189.247H1720.87V284.694Z" fill="#40BCFA"/>
<path d="M1896.94 178.968V308.482C1896.94 326.69 1901.35 340.199 1910.16 349.01C1919.17 357.82 1931.6 362.226 1947.46 362.226C1963.12 362.226 1975.36 357.82 1984.17 349.01C1993.17 340.199 1997.68 326.69 1997.68 308.482V178.968H2024.4V308.188C2024.4 325.222 2020.98 339.612 2014.12 351.359C2007.27 362.911 1997.97 371.525 1986.22 377.203C1974.67 382.881 1961.65 385.72 1947.16 385.72C1932.68 385.72 1919.56 382.881 1907.81 377.203C1896.26 371.525 1887.06 362.911 1880.2 351.359C1873.55 339.612 1870.22 325.222 1870.22 308.188V178.968H1896.94Z" fill="#40BCFA"/>
<path d="M858.765 433.091V530.234H846.082V433.091H858.765Z" fill="#40BCFA"/>
<path d="M998.57 530.234H985.887L934.876 452.882V530.234H922.193V432.951H934.876L985.887 510.164V432.951H998.57V530.234Z" fill="#40BCFA"/>
<path d="M1092.25 433.091C1102.84 433.091 1111.99 435.088 1119.7 439.084C1127.51 442.986 1133.46 448.608 1137.54 455.948C1141.73 463.288 1143.82 471.929 1143.82 481.872C1143.82 491.814 1141.73 500.455 1137.54 507.795C1133.46 515.043 1127.51 520.618 1119.7 524.52C1111.99 528.33 1102.84 530.234 1092.25 530.234H1062V433.091H1092.25ZM1092.25 519.781C1104.79 519.781 1114.36 516.483 1120.96 509.886C1127.56 503.196 1130.85 493.858 1130.85 481.872C1130.85 469.792 1127.51 460.361 1120.82 453.579C1114.22 446.796 1104.7 443.404 1092.25 443.404H1074.69V519.781H1092.25Z" fill="#40BCFA"/>
<path d="M1215.04 433.091V530.234H1202.36V433.091H1215.04Z" fill="#40BCFA"/>
<path d="M1335.89 508.631H1293.52L1285.72 530.234H1272.34L1307.46 433.648H1322.09L1357.08 530.234H1343.7L1335.89 508.631ZM1332.27 498.318L1314.71 449.258L1297.14 498.318H1332.27Z" fill="#40BCFA"/>
</svg>
